<svg width="26" height="26" viewBox="0 0 26 26" fill="none" xmlns="http://www.w3.org/2000/svg">
<path d="M12.8785 0.335938C6.0464 0.335938 0.488037 4.24416 0.488037 9.04798C0.488037 10.671 1.12745 12.255 2.33759 13.6292L12.1732 24.7737C12.3616 24.9871 12.6935 25.1169 13.0505 25.1169C13.0533 25.1169 13.056 25.1169 13.0587 25.1169C13.4188 25.1149 13.7514 24.9811 13.9364 24.7639L23.5213 13.5114C24.6646 12.1663 25.269 10.6229 25.269 9.04798C25.269 4.24416 19.7106 0.335938 12.8785 0.335938ZM21.7491 12.766L13.0349 22.9963L4.09277 12.8641C3.08549 11.7204 2.53935 10.4008 2.53935 9.04798C2.53935 5.0448 7.18508 1.77826 12.8785 1.77826C18.5719 1.77826 23.2108 5.0448 23.2108 9.04798C23.2108 10.3606 22.7006 11.6465 21.7491 12.766Z" fill="white"/>
<path d="M12.8786 4.69238C9.46253 4.69238 6.68335 6.64649 6.68335 9.0484C6.68335 11.435 9.4173 13.4044 12.8786 13.4044C16.3825 13.4044 19.0738 11.4087 19.0738 9.0484C19.0738 6.64649 16.2946 4.69238 12.8786 4.69238ZM12.8786 11.9621C10.5893 11.9621 8.73466 10.6537 8.73466 9.0484C8.73466 7.44713 10.6012 6.13471 12.8786 6.13471C15.1559 6.13471 17.0156 7.44713 17.0156 9.0484C17.0156 10.6303 15.2041 11.9621 12.8786 11.9621Z" fill="white"/>
</svg>
