<svg width="26" height="25" viewBox="0 0 26 25" fill="none" xmlns="http://www.w3.org/2000/svg">
<path d="M24.7871 19.863L22.0399 18.0314L19.5977 16.4035C19.1264 16.09 18.493 16.1928 18.145 16.6394L16.6338 18.5821C16.3092 19.0037 15.7253 19.1248 15.2598 18.8671C14.2344 18.2967 13.0218 17.7597 10.3464 15.0808C7.67092 12.4019 7.13044 11.1928 6.56005 10.1674C6.30232 9.70189 6.42347 9.11795 6.84503 8.79338L8.78775 7.2822C9.23433 6.9343 9.33718 6.3009 9.0236 5.82953L7.44577 3.46255L5.56413 0.640071C5.24387 0.159656 4.60277 0.0154251 4.10764 0.312357L1.93759 1.61421C1.35113 1.95974 0.92003 2.51769 0.733594 3.17239C0.140165 5.336 0.0205206 10.1088 7.66961 17.7579C15.3187 25.407 20.0911 25.287 22.2547 24.6935C22.9094 24.5071 23.4674 24.076 23.8129 23.4895L25.1148 21.3195C25.4117 20.8243 25.2675 20.1833 24.7871 19.863Z" fill="white"/>
<path d="M14.5874 4.00342C18.5969 4.00787 21.8462 7.25714 21.8507 11.2667C21.8507 11.5027 22.042 11.694 22.278 11.694C22.5139 11.694 22.7052 11.5027 22.7052 11.2667C22.7003 6.78543 19.0687 3.15386 14.5874 3.14893C14.3515 3.14893 14.1602 3.3402 14.1602 3.5762C14.1601 3.8121 14.3514 4.00342 14.5874 4.00342Z" fill="white"/>
<path d="M14.5874 6.56695C17.1818 6.57 19.2841 8.67238 19.2872 11.2667C19.2872 11.5026 19.4785 11.694 19.7145 11.694C19.9504 11.694 20.1417 11.5027 20.1417 11.2667C20.1382 8.20063 17.6536 5.71594 14.5874 5.7124C14.3515 5.7124 14.1602 5.90368 14.1602 6.13967C14.1602 6.37567 14.3514 6.56695 14.5874 6.56695Z" fill="white"/>
<path d="M14.5874 9.13037C15.7666 9.13178 16.7222 10.0874 16.7236 11.2666C16.7236 11.5026 16.9149 11.6939 17.1509 11.6939C17.3869 11.6939 17.5782 11.5026 17.5782 11.2666C17.5763 9.61568 16.2384 8.27777 14.5874 8.27588C14.3515 8.27588 14.1602 8.46715 14.1602 8.70315C14.1601 8.9391 14.3514 9.13037 14.5874 9.13037Z" fill="white"/>
</svg>
