<svg width="26" height="26" viewBox="0 0 26 26" fill="none" xmlns="http://www.w3.org/2000/svg">
<path d="M23.0902 0.54248H2.66529C2.33002 0.54248 2.01614 0.650691 1.73218 0.82905L12.8293 15.3976L15.3166 12.2595C15.3166 12.2595 15.3168 12.2592 15.3168 12.2591C15.3169 12.259 15.3171 12.2588 15.3171 12.2588L24.0236 0.829304C23.7396 0.650818 23.4256 0.54248 23.0902 0.54248Z" fill="white"/>
<path d="M25.051 2.17725L16.8577 12.9331L25.0507 23.6891C25.1866 23.3163 25.269 22.9042 25.269 22.4641V3.40181C25.269 2.96191 25.1868 2.54991 25.051 2.17725Z" fill="white"/>
<path d="M0.706322 2.17578C0.570463 2.54858 0.488037 2.96064 0.488037 3.40078V22.463C0.488037 22.9029 0.570366 23.3151 0.706129 23.6877L8.89947 12.9319L0.706322 2.17578Z" fill="white"/>
<path d="M15.8311 14.2804L13.3435 17.4189C13.2017 17.605 13.0159 17.6981 12.8302 17.6981C12.6445 17.6981 12.4587 17.605 12.3169 17.4189L9.92615 14.2803L1.73267 25.0361C2.01668 25.2146 2.33075 25.323 2.66611 25.323H23.091C23.4263 25.323 23.7402 25.2148 24.0241 25.0364L15.8311 14.2804Z" fill="white"/>
</svg>
