<svg width="26" height="26" viewBox="0 0 26 26" fill="none" xmlns="http://www.w3.org/2000/svg">
<path d="M25.2385 3.40901C24.5484 4.67262 23.7018 5.74979 22.6986 6.64051C22.7085 6.8794 22.7135 7.14941 22.7135 7.45053C22.7135 9.12362 22.5153 10.7987 22.1191 12.4759C21.7228 14.153 21.1174 15.7584 20.3031 17.2919C19.4887 18.8254 18.5186 20.1839 17.3928 21.3675C16.2671 22.5511 14.9138 23.4949 13.3331 24.1988C11.7524 24.9026 10.0584 25.2546 8.25091 25.2546C5.43007 25.2546 2.83236 24.3171 0.457764 22.4421C0.879226 22.4999 1.28344 22.5287 1.67042 22.5287C4.027 22.5287 6.13181 21.6351 7.98484 19.848C6.88607 19.8232 5.90203 19.4068 5.03274 18.5988C4.16345 17.7908 3.56522 16.7584 3.23806 15.5015C3.56143 15.5773 3.8806 15.6152 4.19555 15.6152C4.64889 15.6152 5.09498 15.5425 5.53381 15.3969C4.36121 15.1078 3.38845 14.3888 2.61551 13.2399C1.84259 12.0911 1.45614 10.7651 1.45614 9.26204V9.18457C2.17588 9.67517 2.9436 9.93613 3.75929 9.96745C3.06466 9.39736 2.51392 8.65394 2.10707 7.73719C1.70019 6.82045 1.49676 5.82837 1.49676 4.76095C1.49676 3.63519 1.72591 2.58689 2.18421 1.61606C3.45938 3.54248 5.00452 5.08213 6.81963 6.23502C8.63477 7.38793 10.5821 8.02822 12.6615 8.15589C12.5728 7.70086 12.5284 7.22602 12.5282 6.73136C12.5282 5.0042 13.0247 3.52945 14.0177 2.30712C15.0107 1.0848 16.2087 0.473633 17.6117 0.473633C19.0806 0.473633 20.3178 1.13207 21.3234 2.44894C22.4724 2.16877 23.5482 1.66201 24.5509 0.92866C24.1646 2.42526 23.4203 3.57979 22.3178 4.39224C23.3311 4.24402 24.3046 3.91627 25.2384 3.40901H25.2385Z" fill="black"/>
</svg>
