<svg width="25" height="26" viewBox="0 0 25 26" fill="none" xmlns="http://www.w3.org/2000/svg">
<path d="M24.8508 7.78784C24.8369 6.74734 24.6418 5.71719 24.2742 4.74346C23.9554 3.92212 23.4685 3.1762 22.8446 2.55336C22.2208 1.93052 21.4736 1.44444 20.6509 1.1262C19.6881 0.765373 18.6709 0.570269 17.6427 0.549193C16.3189 0.490119 15.8992 0.473633 12.5387 0.473633C9.17829 0.473633 8.74757 0.473633 7.43339 0.549193C6.40566 0.570424 5.38897 0.765525 4.4266 1.1262C3.60376 1.44422 2.85649 1.93022 2.23258 2.55309C1.60867 3.17596 1.12186 3.922 0.803309 4.74346C0.44116 5.70394 0.246155 6.71916 0.22672 7.74525C0.167548 9.06824 0.149658 9.48725 0.149658 12.8421C0.149658 16.197 0.149658 16.6256 0.22672 17.939C0.247362 18.9666 0.441393 19.9805 0.803309 20.9435C1.1224 21.7647 1.60956 22.5105 2.23368 23.1331C2.8578 23.7557 3.60515 24.2415 4.42797 24.5594C5.38772 24.9347 6.40457 25.1438 7.43477 25.1776C8.75996 25.2367 9.17967 25.2546 12.5401 25.2546C15.9006 25.2546 16.3313 25.2546 17.6455 25.1776C18.6736 25.1574 19.6909 24.9628 20.6536 24.602C21.4761 24.2834 22.2231 23.7972 22.8469 23.1744C23.4708 22.5516 23.9578 21.8059 24.2769 20.9847C24.6388 20.0231 24.8329 19.0092 24.8535 17.9802C24.9127 16.6586 24.9306 16.2396 24.9306 12.8833C24.9278 9.52847 24.9278 9.10258 24.8508 7.78784ZM12.5305 19.1864C9.01591 19.1864 6.16875 16.344 6.16875 12.8352C6.16875 9.32651 9.01591 6.48409 12.5305 6.48409C14.2177 6.48409 15.8359 7.15322 17.0289 8.3443C18.222 9.53537 18.8922 11.1508 18.8922 12.8352C18.8922 14.5197 18.222 16.1351 17.0289 17.3262C15.8359 18.5173 14.2177 19.1864 12.5305 19.1864ZM19.1454 7.73014C18.3239 7.73014 17.662 7.06796 17.662 6.24916C17.662 6.05477 17.7003 5.86228 17.7749 5.68268C17.8494 5.50308 17.9586 5.3399 18.0963 5.20244C18.234 5.06498 18.3974 4.95595 18.5773 4.88155C18.7572 4.80716 18.95 4.76887 19.1447 4.76887C19.3395 4.76887 19.5323 4.80716 19.7122 4.88155C19.8921 4.95595 20.0555 5.06498 20.1932 5.20244C20.3309 5.3399 20.4401 5.50308 20.5146 5.68268C20.5891 5.86228 20.6275 6.05477 20.6275 6.24916C20.6275 7.06796 19.9642 7.73014 19.1454 7.73014Z" fill="black"/>
</svg>
